<?xml version="1.0" encoding="UTF-8"?>
<svg id="Layer_1" data-name="Layer 1" xmlns="http://www.w3.org/2000/svg" viewBox="0 0 1600 1600">
  <defs>
    <style>
      .cls-1 {
        fill: #fff;
      }
    </style>
  </defs>
  <path class="cls-1" d="M1427.32,564.45c-5.9-8.34-14.48-11.6-18.08-16.38-14.41-19.12-57.49-64.21-64.11-77.91-12.23-25.33-15.98-72.27-28.13-104.36-37.57-99.22-90.59-147.73-192.62-173.32-86.59-21.72-155.45-16.91-237.56-27.43-105.12-13.47-163.18-50.7-281.62-28.23-122.66,23.28-159.2,93.27-240.05,170.05-40.56,38.52-87.12,68.76-125.37,114.39-126.33,150.72-162.12,373.96-70.65,549.81,34.46,66.25,30.46,68.7,49.76,139.52,71.33,261.87,327.91,377.44,583.56,314.99,119.59-29.21,348.5-159.5,430.97-250.43,108.86-120.03,302.15-457.67,193.91-610.69ZM1331.11,477.86v104.1l-101.01-186.07,59.84,41.11c5.6,6.96,41.17,37.95,41.17,40.85ZM500.29,1251.9c-56.92-27.92-228.2-147.81-251.25-203.02-43.11-103.29-15.36-286.39,19.17-390.97,62.44-189.1,260.8-424.51,468.29-452.87,119.91-16.39,386.3,84.28,464.74,175.56,30.68,35.71,127.66,207.75,129.47,249.16,1.35,30.91-18.42,102.78-28.02,135.16-65.71,221.79-264.03,448.68-485.56,523.93-116.64,39.62-208.25,16.33-316.84-36.94ZM621.4,1320.11c-147.92-15.59-290.5-75.47-350.2-220.78,104.65,98.35,227.18,189.01,372.15,214.58,1.66,10.69-15.27,6.9-21.95,6.2ZM1049.68,191.45c28.13,5.13,71.28,13.93,98.76,21.12,104.47,27.34,162.87,136.46,176.3,236.9-93.35-71.79-181.74-150.25-279.62-215.6l-111.47-55.64c38.5,1.03,78.22,6.32,116.03,13.22ZM941.59,198.59c49.97,19.23,109.43,51.75,149.76,86.78l-137.13-61.55-140.45-39.28c52.92-6.46,78.7-4.85,127.82,14.05ZM838.9,165.61s.03,0,.04.01l-79.58,18.11h0c-78.74-1.24-156.73,7.71-231.1,33.9-34.26,12.07-65.45,38.2-99.81,49.38l-10.02-2.5c98.77-127.58,275.01-136.43,420.47-98.89ZM443.56,271.72c71.61-40.43,154.93-66.63,237.66-68.25l-92.54,43.01c-134.46,74.18-239.73,194.32-304.02,333.22l-57.62,172.58c5.48-126.67,46.43-269.03,110.23-378.65,30.71-52.77,53.13-71.9,106.29-101.92ZM156.45,920.64c-72.02-204.35-.66-436.28,167.29-567.75l-51.12,126.44c-62.16,162.89-74.67,339.27-70.94,512.71l-45.23-71.4ZM214.69,943.37l-.27-1.75c.1.57.19,1.16.27,1.75l12.23,80.25c-23.79-15.13-8.9-55.49-12.23-80.25ZM872.21,1388.09c-298.97,110.51-603.59-16.57-651.48-345.51,9,3.41,17.92,22.59,22.28,31.27,76.65,152.61,178.61,246.53,359.12,259.18,52.33,3.67,123.54,5.22,176.65,6.32,66.5,1.37,133.08.56,199.01-6.52-26.52,24.12-71.43,42.63-105.57,55.25ZM1044.08,1288.66c-19.14,13.36-98.3,37.81-119.93,37.81h-154.58c-3.19-18.92,5.01-9.95,14.82-13.27,105.04-35.55,184.82-73.81,269.19-147.52,148.42-129.66,257.16-311.76,286.98-508.06,46.24,134.6-7.15,251.99-76.24,365.48-44.28,72.73-152.37,218.19-220.25,265.57ZM1188.99,1200.12c-9.65,8.95-84.31,69.37-91.33,63.19,81.96-97.32,166.15-195.45,221.93-311.15,39.31-81.53,60.95-141.81,48.66-233.83-4.31-32.26-23.38-74.64-24.87-101.87-2.01-36.78,15.95-81.32.4-122.83,25.53,16.36,41.8,43.04,59.11,67.08,3.35,4.65,12.05,7.01,18,16.49,98.65,157.22-112.59,512.26-231.9,622.92Z"/>
  <path id="S" class="cls-1" d="M839,714.39c31.46,21.48,178.67,20.73,148.31,82.17-19,38.46-201.89,44.92-221,6.29-18.49-37.37,52.28-56.39,28.52-6.42,60.01,6.58,112.79,10.71,170.3-12.64-4.7-10.8-30.33-16.16-41.22-19.15-29.67-8.15-120.99-13.56-116.82-59.34,4.15-45.43,179.92-60.82,170.59-19.46-6.07,26.95-54.85,2.12-77.88,3.77-7.6.54-67.85,15.46-60.8,24.77Z"/>
  <path id="E" class="cls-1" d="M637.06,720.74c35.57,4.34,70.64-3.17,104.96-5.78,34.1-2.59,31.5,21.34,11.7,24.85-40.71,7.22-82.54,3.64-122.97,12.57,11.16,42.39,15.62,63.13,63.38,41.16,12.43-5.72,57.8-49.66,62.79-25.37,2.93,14.28-55,54.9-67.72,58.3-70.18,18.78-87.5-32.44-89.69-89.7-.42-10.94,7.05-21.97,6.07-31.6-1.57-15.4-30.83-33.53,17.1-46.07,10.99-2.88,74.65-8.32,87.25-7.99,9.91.26,59.78,7.29,59.52,16.01-.61,20.69-36.65,10.23-45.46,11.1-32.29,3.19-96.2-.49-86.94,42.5Z"/>
  <path id="N" class="cls-1" d="M405.58,699.94c8.72,10.43,48.31,40.21,61.66,48.71,6.99,4.45,46.08,26.68,49.93,22.56,1.33-16.86-3.29-109.02,16.45-113.03,25.82-5.25,20.48,28.59,20.9,45.75l-21.63,136.69c-19.1,3.72-17.52-35.61-23.41-42.69-2.67-3.21-39.54-14.59-51.15-21.43-21.25-12.53-46.6-31.7-64.18-49.39l-15.81,107.2c-6.99,1.17-11.84-.06-15.77-6.22-4.86-7.6-5.71-140.25-1.79-153.34,15.11-50.53,37.8,16.83,44.8,25.2Z"/>
  <path id="T" class="cls-1" d="M1223.82,670.32c26.21,23.33-102.7,20.26-112.97,25.79-4.08,4.58-3.77,105.05-6.85,122.47-2.54,14.42-17.41,23.37-25.65,12.03-19.12-26.31,8.09-101.54.42-135.13-15.44-2.31-70.85,7.27-75.69-9.49-9.96-34.47,47.32-12.91,66.61-15.17,12.15-1.42,8.42-12.99,12.92-13.52,11.12-1.31,22.68,8.35,33.22,9.32,17.98,1.66,100.41-3.04,107.98,3.69Z"/>
</svg>